<mxfile host="app.diagrams.net" modified="2023-03-05T07:08:08.059Z" agent="5.0 (X11; Linux x86_64) AppleWebKit/537.36 (KHTML, like Gecko) Chrome/110.0.0.0 Safari/537.36" etag="ticsceDYbZ0vS6N_7rf4" version="21.0.2" type="github">
  <diagram id="R2lEEEUBdFMjLlhIrx00" name="Page-1">
    <mxGraphModel dx="1509" dy="844" grid="1" gridSize="10" guides="1" tooltips="1" connect="1" arrows="1" fold="1" page="1" pageScale="1" pageWidth="1169" pageHeight="827" math="0" shadow="0" extFonts="Permanent Marker^https://fonts.googleapis.com/css?family=Permanent+Marker">
      <root>
        <mxCell id="0" />
        <mxCell id="1" parent="0" />
        <mxCell id="jF5m51w50DA3hgHPm8fN-1" value="GivenNames" style="ellipse;whiteSpace=wrap;html=1;fontSize=14;strokeWidth=3;" vertex="1" parent="1">
          <mxGeometry x="80" y="80" width="120" height="80" as="geometry" />
        </mxCell>
        <mxCell id="jF5m51w50DA3hgHPm8fN-2" value="Surname" style="ellipse;whiteSpace=wrap;html=1;fontSize=14;strokeWidth=3;" vertex="1" parent="1">
          <mxGeometry x="80" y="180" width="120" height="80" as="geometry" />
        </mxCell>
        <mxCell id="jF5m51w50DA3hgHPm8fN-3" value="Student_ID" style="ellipse;whiteSpace=wrap;html=1;fontSize=14;strokeWidth=3;" vertex="1" parent="1">
          <mxGeometry x="80" y="280" width="120" height="80" as="geometry" />
        </mxCell>
        <mxCell id="jF5m51w50DA3hgHPm8fN-4" value="Date_of_Birth" style="ellipse;whiteSpace=wrap;html=1;fontSize=14;strokeWidth=3;" vertex="1" parent="1">
          <mxGeometry x="80" y="380" width="120" height="80" as="geometry" />
        </mxCell>
        <mxCell id="jF5m51w50DA3hgHPm8fN-5" value="YearEnrolled" style="ellipse;whiteSpace=wrap;html=1;fontSize=14;strokeWidth=3;" vertex="1" parent="1">
          <mxGeometry x="80" y="480" width="120" height="80" as="geometry" />
        </mxCell>
        <mxCell id="jF5m51w50DA3hgHPm8fN-6" value="Student" style="rounded=0;whiteSpace=wrap;html=1;strokeWidth=3;fontSize=14;" vertex="1" parent="1">
          <mxGeometry x="320" y="220" width="160" height="80" as="geometry" />
        </mxCell>
        <mxCell id="jF5m51w50DA3hgHPm8fN-7" value="" style="endArrow=none;html=1;rounded=0;exitX=1;exitY=0.5;exitDx=0;exitDy=0;entryX=0;entryY=0.5;entryDx=0;entryDy=0;strokeWidth=3;" edge="1" parent="1" source="jF5m51w50DA3hgHPm8fN-1" target="jF5m51w50DA3hgHPm8fN-6">
          <mxGeometry width="50" height="50" relative="1" as="geometry">
            <mxPoint x="350" y="350" as="sourcePoint" />
            <mxPoint x="400" y="300" as="targetPoint" />
            <Array as="points">
              <mxPoint x="260" y="190" />
            </Array>
          </mxGeometry>
        </mxCell>
        <mxCell id="jF5m51w50DA3hgHPm8fN-8" value="" style="endArrow=none;html=1;rounded=0;exitX=1;exitY=0.5;exitDx=0;exitDy=0;strokeWidth=3;entryX=0;entryY=0.5;entryDx=0;entryDy=0;" edge="1" parent="1" source="jF5m51w50DA3hgHPm8fN-2" target="jF5m51w50DA3hgHPm8fN-6">
          <mxGeometry width="50" height="50" relative="1" as="geometry">
            <mxPoint x="210" y="130" as="sourcePoint" />
            <mxPoint x="320" y="260" as="targetPoint" />
          </mxGeometry>
        </mxCell>
        <mxCell id="jF5m51w50DA3hgHPm8fN-9" value="" style="endArrow=none;html=1;rounded=0;exitX=1;exitY=0.5;exitDx=0;exitDy=0;strokeWidth=3;" edge="1" parent="1" source="jF5m51w50DA3hgHPm8fN-3">
          <mxGeometry width="50" height="50" relative="1" as="geometry">
            <mxPoint x="210" y="230" as="sourcePoint" />
            <mxPoint x="320" y="260" as="targetPoint" />
          </mxGeometry>
        </mxCell>
        <mxCell id="jF5m51w50DA3hgHPm8fN-10" value="" style="endArrow=none;html=1;rounded=0;exitX=1;exitY=0.5;exitDx=0;exitDy=0;strokeWidth=3;entryX=0;entryY=0.5;entryDx=0;entryDy=0;" edge="1" parent="1" source="jF5m51w50DA3hgHPm8fN-4" target="jF5m51w50DA3hgHPm8fN-6">
          <mxGeometry width="50" height="50" relative="1" as="geometry">
            <mxPoint x="220" y="240" as="sourcePoint" />
            <mxPoint x="320" y="270" as="targetPoint" />
          </mxGeometry>
        </mxCell>
        <mxCell id="jF5m51w50DA3hgHPm8fN-11" value="" style="endArrow=none;html=1;rounded=0;exitX=1;exitY=0.5;exitDx=0;exitDy=0;strokeWidth=3;entryX=0;entryY=0.5;entryDx=0;entryDy=0;" edge="1" parent="1" source="jF5m51w50DA3hgHPm8fN-5" target="jF5m51w50DA3hgHPm8fN-6">
          <mxGeometry width="50" height="50" relative="1" as="geometry">
            <mxPoint x="230" y="250" as="sourcePoint" />
            <mxPoint x="350" y="290" as="targetPoint" />
          </mxGeometry>
        </mxCell>
      </root>
    </mxGraphModel>
  </diagram>
</mxfile>
